#!OML:ASF X:\für Bonn\!DataBase\2005_08_11_Bastian_Final\c3d\Bastian.ASF
:FULLY-SPECIFIED
:DEGREES
35
root 1.06687 18.4937 2.36781 175.49 -8.30971 -173.691
lowerback 12.8368 -3.46137 5.54555
upperback 3.72319 -4.35144 3.24072
thorax -3.38752 -2.42686 0.970531
lowerneck -3.43885 -6.5448 -3.94566
upperneck -2.41707 -8.26055 11.9438
head 0.578853 -3.92766 4.45705
rclavicle -6.60959e-015 1.94809e-014
rhumerus 76.5914 -13.1845 -16.2271
rradius 43.9655
rwrist -53.3591
rhand -46.8771 -2.64008
rfingers 7.12502
rthumb -19.5891 -31.6732
lclavicle -6.60959e-015 1.94809e-014
lhumerus -285.582 -1.92234 364.736
lradius 37.6401
lwrist 22.5967
lhand -51.6967 13.1872
lfingers 7.12502
lthumb -24.2167 41.6781
rfemur -4.97529 1.98217 26.3939
rtibia 33.5139
rfoot -9.64897 -10.8162
rtoes -3.35161
lfemur 7.91185 -2.7361 -10.6667
ltibia 15.7925
lfoot 4.0402 -4.65968
ltoes -25.7845
36
root 1.07702 18.5102 2.29028 175.343 -8.36041 -173.638
lowerback 12.7821 -3.59514 5.47086
upperback 3.49133 -4.50369 3.30944
thorax -3.59621 -2.49718 1.11627
lowerneck -2.88776 -6.41457 -3.94116
upperneck -2.21102 -8.13154 11.7073
head 0.523208 -3.88789 4.39242
rclavicle 3.08613e-014 1.78906e-014
rhumerus 74.123 -16.3819 -10.49
rradius 43.4758
rwrist -55.1123
rhand -47.6895 -2.82575
rfingers 7.12502
rthumb -20.37 -31.7774
lclavicle 3.08613e-014 1.78906e-014
lhumerus -287.622 0.678522 360.861
lradius 37.1899
lwrist 24.112
lhand -52.7875 13.3949
lfingers 7.12502
lthumb -25.2621 41.7424
rfemur -5.09856 2.73704 26.5103
rtibia 33.0243
rfoot -9.67739 -11.0058
rtoes -4.13237
lfemur 8.70702 -2.96078 -10.5958
ltibia 14.9201
lfoot 4.62105 -4.42581
ltoes -25.9696
37
root 1.08775 18.5202 2.21096 175.193 -8.3936 -173.561
lowerback 12.721 -3.72493 5.43427
upperback 3.29015 -4.6531 3.37377
thorax -3.7711 -2.56712 1.23434
lowerneck -2.44915 -6.29091 -3.94128
upperneck -1.99055 -8.00737 11.4892
head 0.494325 -3.84419 4.33074
rclavicle -2.23136e-014 2.06736e-014
rhumerus 70.8661 -19.1139 -4.03319
rradius 43.0489
rwrist -56.9358
rhand -48.5706 -3.06845
rfingers 7.12502
rthumb -21.2166 -31.9273
lclavicle -2.23136e-014 2.06736e-014
lhumerus -290.328 2.94508 355.72
lradius 36.992
lwrist 26.5843
lhand -53.9779 13.858
lfingers 7.12502
lthumb -26.4021 42.0396
rfemur -5.21626 3.48628 26.6514
rtibia 32.6133
rfoot -9.24676 -11.3011
rtoes -6.12276
lfemur 9.48226 -3.21472 -10.5106
ltibia 14.1503
lfoot 5.068 -4.13285
ltoes -25.9822
38
root 1.09934 18.5259 2.12915 175.062 -8.40865 -173.577
lowerback 12.6625 -3.84303 5.30199
upperback 3.0886 -4.79688 3.40752
thorax -3.94278 -2.63179 1.3727
lowerneck -2.0666 -6.182 -3.95142
upperneck -1.73888 -7.90308 11.2769
head 0.488292 -3.80675 4.26977
rclavicle -1.84373e-014 -1.63003e-014
rhumerus 66.9926 -21.1666 2.87784
rradius 42.5242
rwrist -58.4338
rhand -49.3912 -3.63174
rfingers 7.12502
rthumb -22.0046 -32.4
lclavicle -1.84373e-014 -1.63003e-014
lhumerus -293.789 4.61292 349.113
lradius 37.0485
lwrist 30.2147
lhand -55.2763 14.6515
lfingers 7.12502
lthumb -27.6444 42.6404
rfemur -5.32266 4.13823 26.6813
rtibia 32.277
rfoot -8.55097 -11.5296
rtoes -9.2191
lfemur 10.2238 -3.49137 -10.5443
ltibia 13.4901
lfoot 5.37077 -3.78368
ltoes -26.1465
39
root 1.11036 18.5256 2.04602 174.932 -8.41005 -173.549
lowerback 12.5883 -3.9667 5.21827
upperback 2.9079 -4.94898 3.45821
thorax -4.08514 -2.70217 1.50124
lowerneck -1.72899 -6.05469 -3.95812
upperneck -1.50465 -7.76979 11.0571
head 0.481951 -3.75287 4.20504
rclavicle -4.07012e-014 2.10712e-014
rhumerus 62.428 -22.4434 10.1178
rradius 42.1206
rwrist -59.5586
rhand -50.0843 -4.67143
rfingers 7.12502
rthumb -22.67 -33.3599
lclavicle -4.07012e-014 2.10712e-014
lhumerus -297.978 5.41033 341.172
lradius 37.2654
lwrist 34.7612
lhand -56.4783 15.7406
lfingers 7.12502
lthumb -28.7932 43.5397
rfemur -5.38561 4.68208 26.748
rtibia 31.9726
rfoot -7.64196 -11.6711
rtoes -11.4925
lfemur 10.8973 -3.7487 -10.5375
ltibia 12.9766
lfoot 5.56059 -3.42901
ltoes -26.0709
